<?xml version="1.0" encoding="utf-8" standalone="no"?>
<!DOCTYPE svg PUBLIC "-//W3C//DTD SVG 1.1//EN"
  "http://www.w3.org/Graphics/SVG/1.1/DTD/svg11.dtd">
<svg xmlns:xlink="http://www.w3.org/1999/xlink" width="712.53375pt" height="280.185pt" viewBox="0 0 712.53375 280.185" xmlns="http://www.w3.org/2000/svg" version="1.1">
 <metadata>
  <rdf:RDF xmlns:dc="http://purl.org/dc/elements/1.1/" xmlns:cc="http://creativecommons.org/ns#" xmlns:rdf="http://www.w3.org/1999/02/22-rdf-syntax-ns#">
   <cc:Work>
    <dc:type rdf:resource="http://purl.org/dc/dcmitype/StillImage"/>
    <dc:date>2025-08-23T16:54:06.186656</dc:date>
    <dc:format>image/svg+xml</dc:format>
    <dc:creator>
     <cc:Agent>
      <dc:title>Matplotlib v3.6.3, https://matplotlib.org/</dc:title>
     </cc:Agent>
    </dc:creator>
   </cc:Work>
  </rdf:RDF>
 </metadata>
 <defs>
  <style type="text/css">*{stroke-linejoin: round; stroke-linecap: butt}</style>
 </defs>
 <g id="figure_1">
  <g id="patch_1">
   <path d="M -0 280.185 
L 712.53375 280.185 
L 712.53375 0 
L -0 0 
z
" style="fill: #ffffff"/>
  </g>
  <g id="axes_1">
   <g id="patch_2">
    <path d="M 22.81375 242.2575 
L 705.33375 242.2575 
L 705.33375 25.3575 
L 22.81375 25.3575 
z
" style="fill: #ffffff"/>
   </g>
   <g id="matplotlib.axis_1">
    <g id="xtick_1">
     <g id="line2d_1">
      <path d="M 53.837386 242.2575 
L 53.837386 25.3575 
" clip-path="url(#p69b8009ed7)" style="fill: none; stroke-dasharray: 1.85,0.8; stroke-dashoffset: 0; stroke: #b0b0b0; stroke-opacity: 0.3; stroke-width: 0.5"/>
     </g>
     <g id="line2d_2">
      <defs>
       <path id="m1ecab545d6" d="M 0 0 
L 0 -3.5 
" style="stroke: #1a1a1a; stroke-width: 0.8"/>
      </defs>
      <g>
       <use xlink:href="#m1ecab545d6" x="53.837386" y="242.2575" style="fill: #1a1a1a; stroke: #1a1a1a; stroke-width: 0.8"/>
      </g>
     </g>
     <g id="text_1">
      <!-- 0.0 -->
      <g style="fill: #1a1a1a" transform="translate(44.295511 254.875625) scale(0.12 -0.12)">
       <defs>
        <path id="DejaVuSans-30" d="M 2034 4250 
Q 1547 4250 1301 3770 
Q 1056 3291 1056 2328 
Q 1056 1369 1301 889 
Q 1547 409 2034 409 
Q 2525 409 2770 889 
Q 3016 1369 3016 2328 
Q 3016 3291 2770 3770 
Q 2525 4250 2034 4250 
z
M 2034 4750 
Q 2819 4750 3233 4129 
Q 3647 3509 3647 2328 
Q 3647 1150 3233 529 
Q 2819 -91 2034 -91 
Q 1250 -91 836 529 
Q 422 1150 422 2328 
Q 422 3509 836 4129 
Q 1250 4750 2034 4750 
z
" transform="scale(0.015625)"/>
        <path id="DejaVuSans-2e" d="M 684 794 
L 1344 794 
L 1344 0 
L 684 0 
L 684 794 
z
" transform="scale(0.015625)"/>
       </defs>
       <use xlink:href="#DejaVuSans-30"/>
       <use xlink:href="#DejaVuSans-2e" x="63.623047"/>
       <use xlink:href="#DejaVuSans-30" x="95.410156"/>
      </g>
     </g>
    </g>
    <g id="xtick_2">
     <g id="line2d_3">
      <path d="M 136.130138 242.2575 
L 136.130138 25.3575 
" clip-path="url(#p69b8009ed7)" style="fill: none; stroke-dasharray: 1.85,0.8; stroke-dashoffset: 0; stroke: #b0b0b0; stroke-opacity: 0.3; stroke-width: 0.5"/>
     </g>
     <g id="line2d_4">
      <g>
       <use xlink:href="#m1ecab545d6" x="136.130138" y="242.2575" style="fill: #1a1a1a; stroke: #1a1a1a; stroke-width: 0.8"/>
      </g>
     </g>
     <g id="text_2">
      <!-- 2.5 -->
      <g style="fill: #1a1a1a" transform="translate(126.588263 254.875625) scale(0.12 -0.12)">
       <defs>
        <path id="DejaVuSans-32" d="M 1228 531 
L 3431 531 
L 3431 0 
L 469 0 
L 469 531 
Q 828 903 1448 1529 
Q 2069 2156 2228 2338 
Q 2531 2678 2651 2914 
Q 2772 3150 2772 3378 
Q 2772 3750 2511 3984 
Q 2250 4219 1831 4219 
Q 1534 4219 1204 4116 
Q 875 4013 500 3803 
L 500 4441 
Q 881 4594 1212 4672 
Q 1544 4750 1819 4750 
Q 2544 4750 2975 4387 
Q 3406 4025 3406 3419 
Q 3406 3131 3298 2873 
Q 3191 2616 2906 2266 
Q 2828 2175 2409 1742 
Q 1991 1309 1228 531 
z
" transform="scale(0.015625)"/>
        <path id="DejaVuSans-35" d="M 691 4666 
L 3169 4666 
L 3169 4134 
L 1269 4134 
L 1269 2991 
Q 1406 3038 1543 3061 
Q 1681 3084 1819 3084 
Q 2600 3084 3056 2656 
Q 3513 2228 3513 1497 
Q 3513 744 3044 326 
Q 2575 -91 1722 -91 
Q 1428 -91 1123 -41 
Q 819 9 494 109 
L 494 744 
Q 775 591 1075 516 
Q 1375 441 1709 441 
Q 2250 441 2565 725 
Q 2881 1009 2881 1497 
Q 2881 1984 2565 2268 
Q 2250 2553 1709 2553 
Q 1456 2553 1204 2497 
Q 953 2441 691 2322 
L 691 4666 
z
" transform="scale(0.015625)"/>
       </defs>
       <use xlink:href="#DejaVuSans-32"/>
       <use xlink:href="#DejaVuSans-2e" x="63.623047"/>
       <use xlink:href="#DejaVuSans-35" x="95.410156"/>
      </g>
     </g>
    </g>
    <g id="xtick_3">
     <g id="line2d_5">
      <path d="M 218.422889 242.2575 
L 218.422889 25.3575 
" clip-path="url(#p69b8009ed7)" style="fill: none; stroke-dasharray: 1.85,0.8; stroke-dashoffset: 0; stroke: #b0b0b0; stroke-opacity: 0.3; stroke-width: 0.5"/>
     </g>
     <g id="line2d_6">
      <g>
       <use xlink:href="#m1ecab545d6" x="218.422889" y="242.2575" style="fill: #1a1a1a; stroke: #1a1a1a; stroke-width: 0.8"/>
      </g>
     </g>
     <g id="text_3">
      <!-- 5.0 -->
      <g style="fill: #1a1a1a" transform="translate(208.881014 254.875625) scale(0.12 -0.12)">
       <use xlink:href="#DejaVuSans-35"/>
       <use xlink:href="#DejaVuSans-2e" x="63.623047"/>
       <use xlink:href="#DejaVuSans-30" x="95.410156"/>
      </g>
     </g>
    </g>
    <g id="xtick_4">
     <g id="line2d_7">
      <path d="M 300.71564 242.2575 
L 300.71564 25.3575 
" clip-path="url(#p69b8009ed7)" style="fill: none; stroke-dasharray: 1.85,0.8; stroke-dashoffset: 0; stroke: #b0b0b0; stroke-opacity: 0.3; stroke-width: 0.5"/>
     </g>
     <g id="line2d_8">
      <g>
       <use xlink:href="#m1ecab545d6" x="300.71564" y="242.2575" style="fill: #1a1a1a; stroke: #1a1a1a; stroke-width: 0.8"/>
      </g>
     </g>
     <g id="text_4">
      <!-- 7.5 -->
      <g style="fill: #1a1a1a" transform="translate(291.173765 254.875625) scale(0.12 -0.12)">
       <defs>
        <path id="DejaVuSans-37" d="M 525 4666 
L 3525 4666 
L 3525 4397 
L 1831 0 
L 1172 0 
L 2766 4134 
L 525 4134 
L 525 4666 
z
" transform="scale(0.015625)"/>
       </defs>
       <use xlink:href="#DejaVuSans-37"/>
       <use xlink:href="#DejaVuSans-2e" x="63.623047"/>
       <use xlink:href="#DejaVuSans-35" x="95.410156"/>
      </g>
     </g>
    </g>
    <g id="xtick_5">
     <g id="line2d_9">
      <path d="M 383.008392 242.2575 
L 383.008392 25.3575 
" clip-path="url(#p69b8009ed7)" style="fill: none; stroke-dasharray: 1.85,0.8; stroke-dashoffset: 0; stroke: #b0b0b0; stroke-opacity: 0.3; stroke-width: 0.5"/>
     </g>
     <g id="line2d_10">
      <g>
       <use xlink:href="#m1ecab545d6" x="383.008392" y="242.2575" style="fill: #1a1a1a; stroke: #1a1a1a; stroke-width: 0.8"/>
      </g>
     </g>
     <g id="text_5">
      <!-- 10.0 -->
      <g style="fill: #1a1a1a" transform="translate(369.649017 254.875625) scale(0.12 -0.12)">
       <defs>
        <path id="DejaVuSans-31" d="M 794 531 
L 1825 531 
L 1825 4091 
L 703 3866 
L 703 4441 
L 1819 4666 
L 2450 4666 
L 2450 531 
L 3481 531 
L 3481 0 
L 794 0 
L 794 531 
z
" transform="scale(0.015625)"/>
       </defs>
       <use xlink:href="#DejaVuSans-31"/>
       <use xlink:href="#DejaVuSans-30" x="63.623047"/>
       <use xlink:href="#DejaVuSans-2e" x="127.246094"/>
       <use xlink:href="#DejaVuSans-30" x="159.033203"/>
      </g>
     </g>
    </g>
    <g id="xtick_6">
     <g id="line2d_11">
      <path d="M 465.301143 242.2575 
L 465.301143 25.3575 
" clip-path="url(#p69b8009ed7)" style="fill: none; stroke-dasharray: 1.85,0.8; stroke-dashoffset: 0; stroke: #b0b0b0; stroke-opacity: 0.3; stroke-width: 0.5"/>
     </g>
     <g id="line2d_12">
      <g>
       <use xlink:href="#m1ecab545d6" x="465.301143" y="242.2575" style="fill: #1a1a1a; stroke: #1a1a1a; stroke-width: 0.8"/>
      </g>
     </g>
     <g id="text_6">
      <!-- 12.5 -->
      <g style="fill: #1a1a1a" transform="translate(451.941768 254.875625) scale(0.12 -0.12)">
       <use xlink:href="#DejaVuSans-31"/>
       <use xlink:href="#DejaVuSans-32" x="63.623047"/>
       <use xlink:href="#DejaVuSans-2e" x="127.246094"/>
       <use xlink:href="#DejaVuSans-35" x="159.033203"/>
      </g>
     </g>
    </g>
    <g id="xtick_7">
     <g id="line2d_13">
      <path d="M 547.593894 242.2575 
L 547.593894 25.3575 
" clip-path="url(#p69b8009ed7)" style="fill: none; stroke-dasharray: 1.85,0.8; stroke-dashoffset: 0; stroke: #b0b0b0; stroke-opacity: 0.3; stroke-width: 0.5"/>
     </g>
     <g id="line2d_14">
      <g>
       <use xlink:href="#m1ecab545d6" x="547.593894" y="242.2575" style="fill: #1a1a1a; stroke: #1a1a1a; stroke-width: 0.8"/>
      </g>
     </g>
     <g id="text_7">
      <!-- 15.0 -->
      <g style="fill: #1a1a1a" transform="translate(534.234519 254.875625) scale(0.12 -0.12)">
       <use xlink:href="#DejaVuSans-31"/>
       <use xlink:href="#DejaVuSans-35" x="63.623047"/>
       <use xlink:href="#DejaVuSans-2e" x="127.246094"/>
       <use xlink:href="#DejaVuSans-30" x="159.033203"/>
      </g>
     </g>
    </g>
    <g id="xtick_8">
     <g id="line2d_15">
      <path d="M 629.886646 242.2575 
L 629.886646 25.3575 
" clip-path="url(#p69b8009ed7)" style="fill: none; stroke-dasharray: 1.85,0.8; stroke-dashoffset: 0; stroke: #b0b0b0; stroke-opacity: 0.3; stroke-width: 0.5"/>
     </g>
     <g id="line2d_16">
      <g>
       <use xlink:href="#m1ecab545d6" x="629.886646" y="242.2575" style="fill: #1a1a1a; stroke: #1a1a1a; stroke-width: 0.8"/>
      </g>
     </g>
     <g id="text_8">
      <!-- 17.5 -->
      <g style="fill: #1a1a1a" transform="translate(616.527271 254.875625) scale(0.12 -0.12)">
       <use xlink:href="#DejaVuSans-31"/>
       <use xlink:href="#DejaVuSans-37" x="63.623047"/>
       <use xlink:href="#DejaVuSans-2e" x="127.246094"/>
       <use xlink:href="#DejaVuSans-35" x="159.033203"/>
      </g>
     </g>
    </g>
    <g id="text_9">
     <!-- Braid parameter (t) -->
     <g style="fill: #1a1a1a" transform="translate(305.81375 270.489375) scale(0.12 -0.12)">
      <defs>
       <path id="DejaVuSans-42" d="M 1259 2228 
L 1259 519 
L 2272 519 
Q 2781 519 3026 730 
Q 3272 941 3272 1375 
Q 3272 1813 3026 2020 
Q 2781 2228 2272 2228 
L 1259 2228 
z
M 1259 4147 
L 1259 2741 
L 2194 2741 
Q 2656 2741 2882 2914 
Q 3109 3088 3109 3444 
Q 3109 3797 2882 3972 
Q 2656 4147 2194 4147 
L 1259 4147 
z
M 628 4666 
L 2241 4666 
Q 2963 4666 3353 4366 
Q 3744 4066 3744 3513 
Q 3744 3084 3544 2831 
Q 3344 2578 2956 2516 
Q 3422 2416 3680 2098 
Q 3938 1781 3938 1306 
Q 3938 681 3513 340 
Q 3088 0 2303 0 
L 628 0 
L 628 4666 
z
" transform="scale(0.015625)"/>
       <path id="DejaVuSans-72" d="M 2631 2963 
Q 2534 3019 2420 3045 
Q 2306 3072 2169 3072 
Q 1681 3072 1420 2755 
Q 1159 2438 1159 1844 
L 1159 0 
L 581 0 
L 581 3500 
L 1159 3500 
L 1159 2956 
Q 1341 3275 1631 3429 
Q 1922 3584 2338 3584 
Q 2397 3584 2469 3576 
Q 2541 3569 2628 3553 
L 2631 2963 
z
" transform="scale(0.015625)"/>
       <path id="DejaVuSans-61" d="M 2194 1759 
Q 1497 1759 1228 1600 
Q 959 1441 959 1056 
Q 959 750 1161 570 
Q 1363 391 1709 391 
Q 2188 391 2477 730 
Q 2766 1069 2766 1631 
L 2766 1759 
L 2194 1759 
z
M 3341 1997 
L 3341 0 
L 2766 0 
L 2766 531 
Q 2569 213 2275 61 
Q 1981 -91 1556 -91 
Q 1019 -91 701 211 
Q 384 513 384 1019 
Q 384 1609 779 1909 
Q 1175 2209 1959 2209 
L 2766 2209 
L 2766 2266 
Q 2766 2663 2505 2880 
Q 2244 3097 1772 3097 
Q 1472 3097 1187 3025 
Q 903 2953 641 2809 
L 641 3341 
Q 956 3463 1253 3523 
Q 1550 3584 1831 3584 
Q 2591 3584 2966 3190 
Q 3341 2797 3341 1997 
z
" transform="scale(0.015625)"/>
       <path id="DejaVuSans-69" d="M 603 3500 
L 1178 3500 
L 1178 0 
L 603 0 
L 603 3500 
z
M 603 4863 
L 1178 4863 
L 1178 4134 
L 603 4134 
L 603 4863 
z
" transform="scale(0.015625)"/>
       <path id="DejaVuSans-64" d="M 2906 2969 
L 2906 4863 
L 3481 4863 
L 3481 0 
L 2906 0 
L 2906 525 
Q 2725 213 2448 61 
Q 2172 -91 1784 -91 
Q 1150 -91 751 415 
Q 353 922 353 1747 
Q 353 2572 751 3078 
Q 1150 3584 1784 3584 
Q 2172 3584 2448 3432 
Q 2725 3281 2906 2969 
z
M 947 1747 
Q 947 1113 1208 752 
Q 1469 391 1925 391 
Q 2381 391 2643 752 
Q 2906 1113 2906 1747 
Q 2906 2381 2643 2742 
Q 2381 3103 1925 3103 
Q 1469 3103 1208 2742 
Q 947 2381 947 1747 
z
" transform="scale(0.015625)"/>
       <path id="DejaVuSans-20" transform="scale(0.015625)"/>
       <path id="DejaVuSans-70" d="M 1159 525 
L 1159 -1331 
L 581 -1331 
L 581 3500 
L 1159 3500 
L 1159 2969 
Q 1341 3281 1617 3432 
Q 1894 3584 2278 3584 
Q 2916 3584 3314 3078 
Q 3713 2572 3713 1747 
Q 3713 922 3314 415 
Q 2916 -91 2278 -91 
Q 1894 -91 1617 61 
Q 1341 213 1159 525 
z
M 3116 1747 
Q 3116 2381 2855 2742 
Q 2594 3103 2138 3103 
Q 1681 3103 1420 2742 
Q 1159 2381 1159 1747 
Q 1159 1113 1420 752 
Q 1681 391 2138 391 
Q 2594 391 2855 752 
Q 3116 1113 3116 1747 
z
" transform="scale(0.015625)"/>
       <path id="DejaVuSans-6d" d="M 3328 2828 
Q 3544 3216 3844 3400 
Q 4144 3584 4550 3584 
Q 5097 3584 5394 3201 
Q 5691 2819 5691 2113 
L 5691 0 
L 5113 0 
L 5113 2094 
Q 5113 2597 4934 2840 
Q 4756 3084 4391 3084 
Q 3944 3084 3684 2787 
Q 3425 2491 3425 1978 
L 3425 0 
L 2847 0 
L 2847 2094 
Q 2847 2600 2669 2842 
Q 2491 3084 2119 3084 
Q 1678 3084 1418 2786 
Q 1159 2488 1159 1978 
L 1159 0 
L 581 0 
L 581 3500 
L 1159 3500 
L 1159 2956 
Q 1356 3278 1631 3431 
Q 1906 3584 2284 3584 
Q 2666 3584 2933 3390 
Q 3200 3197 3328 2828 
z
" transform="scale(0.015625)"/>
       <path id="DejaVuSans-65" d="M 3597 1894 
L 3597 1613 
L 953 1613 
Q 991 1019 1311 708 
Q 1631 397 2203 397 
Q 2534 397 2845 478 
Q 3156 559 3463 722 
L 3463 178 
Q 3153 47 2828 -22 
Q 2503 -91 2169 -91 
Q 1331 -91 842 396 
Q 353 884 353 1716 
Q 353 2575 817 3079 
Q 1281 3584 2069 3584 
Q 2775 3584 3186 3129 
Q 3597 2675 3597 1894 
z
M 3022 2063 
Q 3016 2534 2758 2815 
Q 2500 3097 2075 3097 
Q 1594 3097 1305 2825 
Q 1016 2553 972 2059 
L 3022 2063 
z
" transform="scale(0.015625)"/>
       <path id="DejaVuSans-74" d="M 1172 4494 
L 1172 3500 
L 2356 3500 
L 2356 3053 
L 1172 3053 
L 1172 1153 
Q 1172 725 1289 603 
Q 1406 481 1766 481 
L 2356 481 
L 2356 0 
L 1766 0 
Q 1100 0 847 248 
Q 594 497 594 1153 
L 594 3053 
L 172 3053 
L 172 3500 
L 594 3500 
L 594 4494 
L 1172 4494 
z
" transform="scale(0.015625)"/>
       <path id="DejaVuSans-28" d="M 1984 4856 
Q 1566 4138 1362 3434 
Q 1159 2731 1159 2009 
Q 1159 1288 1364 580 
Q 1569 -128 1984 -844 
L 1484 -844 
Q 1016 -109 783 600 
Q 550 1309 550 2009 
Q 550 2706 781 3412 
Q 1013 4119 1484 4856 
L 1984 4856 
z
" transform="scale(0.015625)"/>
       <path id="DejaVuSans-29" d="M 513 4856 
L 1013 4856 
Q 1481 4119 1714 3412 
Q 1947 2706 1947 2009 
Q 1947 1309 1714 600 
Q 1481 -109 1013 -844 
L 513 -844 
Q 928 -128 1133 580 
Q 1338 1288 1338 2009 
Q 1338 2731 1133 3434 
Q 928 4138 513 4856 
z
" transform="scale(0.015625)"/>
      </defs>
      <use xlink:href="#DejaVuSans-42"/>
      <use xlink:href="#DejaVuSans-72" x="68.603516"/>
      <use xlink:href="#DejaVuSans-61" x="109.716797"/>
      <use xlink:href="#DejaVuSans-69" x="170.996094"/>
      <use xlink:href="#DejaVuSans-64" x="198.779297"/>
      <use xlink:href="#DejaVuSans-20" x="262.255859"/>
      <use xlink:href="#DejaVuSans-70" x="294.042969"/>
      <use xlink:href="#DejaVuSans-61" x="357.519531"/>
      <use xlink:href="#DejaVuSans-72" x="418.798828"/>
      <use xlink:href="#DejaVuSans-61" x="459.912109"/>
      <use xlink:href="#DejaVuSans-6d" x="521.191406"/>
      <use xlink:href="#DejaVuSans-65" x="618.603516"/>
      <use xlink:href="#DejaVuSans-74" x="680.126953"/>
      <use xlink:href="#DejaVuSans-65" x="719.335938"/>
      <use xlink:href="#DejaVuSans-72" x="780.859375"/>
      <use xlink:href="#DejaVuSans-20" x="821.972656"/>
      <use xlink:href="#DejaVuSans-28" x="853.759766"/>
      <use xlink:href="#DejaVuSans-74" x="892.773438"/>
      <use xlink:href="#DejaVuSans-29" x="931.982422"/>
     </g>
    </g>
   </g>
   <g id="matplotlib.axis_2">
    <g id="text_10">
     <!-- Strand offset -->
     <g style="fill: #1a1a1a" transform="translate(16.318125 172.695938) rotate(-90) scale(0.12 -0.12)">
      <defs>
       <path id="DejaVuSans-53" d="M 3425 4513 
L 3425 3897 
Q 3066 4069 2747 4153 
Q 2428 4238 2131 4238 
Q 1616 4238 1336 4038 
Q 1056 3838 1056 3469 
Q 1056 3159 1242 3001 
Q 1428 2844 1947 2747 
L 2328 2669 
Q 3034 2534 3370 2195 
Q 3706 1856 3706 1288 
Q 3706 609 3251 259 
Q 2797 -91 1919 -91 
Q 1588 -91 1214 -16 
Q 841 59 441 206 
L 441 856 
Q 825 641 1194 531 
Q 1563 422 1919 422 
Q 2459 422 2753 634 
Q 3047 847 3047 1241 
Q 3047 1584 2836 1778 
Q 2625 1972 2144 2069 
L 1759 2144 
Q 1053 2284 737 2584 
Q 422 2884 422 3419 
Q 422 4038 858 4394 
Q 1294 4750 2059 4750 
Q 2388 4750 2728 4690 
Q 3069 4631 3425 4513 
z
" transform="scale(0.015625)"/>
       <path id="DejaVuSans-6e" d="M 3513 2113 
L 3513 0 
L 2938 0 
L 2938 2094 
Q 2938 2591 2744 2837 
Q 2550 3084 2163 3084 
Q 1697 3084 1428 2787 
Q 1159 2491 1159 1978 
L 1159 0 
L 581 0 
L 581 3500 
L 1159 3500 
L 1159 2956 
Q 1366 3272 1645 3428 
Q 1925 3584 2291 3584 
Q 2894 3584 3203 3211 
Q 3513 2838 3513 2113 
z
" transform="scale(0.015625)"/>
       <path id="DejaVuSans-6f" d="M 1959 3097 
Q 1497 3097 1228 2736 
Q 959 2375 959 1747 
Q 959 1119 1226 758 
Q 1494 397 1959 397 
Q 2419 397 2687 759 
Q 2956 1122 2956 1747 
Q 2956 2369 2687 2733 
Q 2419 3097 1959 3097 
z
M 1959 3584 
Q 2709 3584 3137 3096 
Q 3566 2609 3566 1747 
Q 3566 888 3137 398 
Q 2709 -91 1959 -91 
Q 1206 -91 779 398 
Q 353 888 353 1747 
Q 353 2609 779 3096 
Q 1206 3584 1959 3584 
z
" transform="scale(0.015625)"/>
       <path id="DejaVuSans-66" d="M 2375 4863 
L 2375 4384 
L 1825 4384 
Q 1516 4384 1395 4259 
Q 1275 4134 1275 3809 
L 1275 3500 
L 2222 3500 
L 2222 3053 
L 1275 3053 
L 1275 0 
L 697 0 
L 697 3053 
L 147 3053 
L 147 3500 
L 697 3500 
L 697 3744 
Q 697 4328 969 4595 
Q 1241 4863 1831 4863 
L 2375 4863 
z
" transform="scale(0.015625)"/>
       <path id="DejaVuSans-73" d="M 2834 3397 
L 2834 2853 
Q 2591 2978 2328 3040 
Q 2066 3103 1784 3103 
Q 1356 3103 1142 2972 
Q 928 2841 928 2578 
Q 928 2378 1081 2264 
Q 1234 2150 1697 2047 
L 1894 2003 
Q 2506 1872 2764 1633 
Q 3022 1394 3022 966 
Q 3022 478 2636 193 
Q 2250 -91 1575 -91 
Q 1294 -91 989 -36 
Q 684 19 347 128 
L 347 722 
Q 666 556 975 473 
Q 1284 391 1588 391 
Q 1994 391 2212 530 
Q 2431 669 2431 922 
Q 2431 1156 2273 1281 
Q 2116 1406 1581 1522 
L 1381 1569 
Q 847 1681 609 1914 
Q 372 2147 372 2553 
Q 372 3047 722 3315 
Q 1072 3584 1716 3584 
Q 2034 3584 2315 3537 
Q 2597 3491 2834 3397 
z
" transform="scale(0.015625)"/>
      </defs>
      <use xlink:href="#DejaVuSans-53"/>
      <use xlink:href="#DejaVuSans-74" x="63.476562"/>
      <use xlink:href="#DejaVuSans-72" x="102.685547"/>
      <use xlink:href="#DejaVuSans-61" x="143.798828"/>
      <use xlink:href="#DejaVuSans-6e" x="205.078125"/>
      <use xlink:href="#DejaVuSans-64" x="268.457031"/>
      <use xlink:href="#DejaVuSans-20" x="331.933594"/>
      <use xlink:href="#DejaVuSans-6f" x="363.720703"/>
      <use xlink:href="#DejaVuSans-66" x="424.902344"/>
      <use xlink:href="#DejaVuSans-66" x="460.107422"/>
      <use xlink:href="#DejaVuSans-73" x="495.3125"/>
      <use xlink:href="#DejaVuSans-65" x="547.412109"/>
      <use xlink:href="#DejaVuSans-74" x="608.935547"/>
     </g>
    </g>
   </g>
   <g id="line2d_17">
    <path d="M 53.837386 133.8075 
L 62.634748 107.770815 
L 67.292174 94.621477 
L 71.432109 83.582806 
L 75.054552 74.569133 
L 78.159503 67.40964 
L 81.264454 60.840481 
L 83.851914 55.859439 
L 86.439373 51.359774 
L 89.026832 47.369275 
L 91.0968 44.560145 
L 93.166767 42.103821 
L 95.236734 40.010014 
L 97.306702 38.286999 
L 98.859177 37.242225 
L 100.411653 36.412208 
L 101.964128 35.798793 
L 103.516604 35.403345 
L 105.069079 35.226744 
L 106.621555 35.269381 
L 108.174031 35.531163 
L 109.726506 36.011507 
L 111.278982 36.709345 
L 112.831457 37.623125 
L 114.383933 38.750814 
L 116.4539 40.582746 
L 118.523868 42.783207 
L 120.593835 45.343498 
L 122.663802 48.253499 
L 124.73377 51.501706 
L 127.321229 56.017881 
L 129.908688 61.014455 
L 132.496147 66.460571 
L 135.601099 73.541767 
L 138.70605 81.158777 
L 142.328493 90.631915 
L 146.468427 102.090984 
L 151.643346 117.097374 
L 169.755561 170.370116 
L 173.895495 181.566446 
L 177.517938 190.750123 
L 180.622889 198.077528 
L 183.727841 204.833516 
L 186.3153 209.983507 
L 188.902759 214.663065 
L 191.490218 218.843289 
L 193.560186 221.810493 
L 195.630153 224.42981 
L 197.70012 226.690886 
L 199.770088 228.584782 
L 201.840055 230.104011 
L 203.392531 230.993889 
L 204.945006 231.667629 
L 206.497482 232.123732 
L 208.049957 232.361184 
L 209.602433 232.379458 
L 211.154909 232.178512 
L 212.707384 231.758793 
L 214.25986 231.121235 
L 215.812335 230.267256 
L 217.364811 229.198754 
L 219.434778 227.44456 
L 221.504746 225.320207 
L 223.574713 222.834092 
L 225.64468 219.996044 
L 227.714648 216.817281 
L 230.302107 212.383967 
L 232.889566 207.465394 
L 235.477025 202.091939 
L 238.581977 195.090256 
L 241.686928 187.543717 
L 245.309371 178.140536 
L 249.449305 166.744229 
L 254.624224 151.789098 
L 264.974061 120.928122 
L 271.183963 102.825738 
L 275.84139 89.936543 
L 279.463833 80.505185 
L 283.086276 71.71869 
L 286.191227 64.781484 
L 288.778686 59.466822 
L 291.366145 54.611259 
L 293.953604 50.244781 
L 296.023572 47.121968 
L 298.093539 44.341833 
L 300.163507 41.915367 
L 302.233474 39.852163 
L 304.303441 38.160376 
L 305.855917 37.139358 
L 307.408393 36.333325 
L 308.960868 35.74407 
L 310.513344 35.372904 
L 312.065819 35.220652 
L 313.618295 35.287653 
L 315.17077 35.573757 
L 316.723246 36.078328 
L 318.275721 36.800245 
L 319.828197 37.737902 
L 321.380672 38.889213 
L 323.45064 40.752152 
L 325.520607 42.982951 
L 327.590575 45.572791 
L 329.660542 48.511434 
L 331.730509 51.787263 
L 334.317969 56.336366 
L 336.905428 61.363901 
L 339.492887 66.83882 
L 342.597838 73.951482 
L 345.702789 81.596315 
L 349.325232 91.096981 
L 353.465167 102.580605 
L 358.640086 117.606778 
L 376.7523 170.849423 
L 380.892235 182.017775 
L 384.514678 191.171106 
L 387.619629 198.46843 
L 390.72458 205.190862 
L 393.312039 210.310449 
L 395.899499 214.957584 
L 398.486958 219.103566 
L 400.556925 222.042209 
L 402.626893 224.632049 
L 404.69686 226.862848 
L 406.766828 228.725787 
L 408.319303 229.877098 
L 409.871779 230.814755 
L 411.424254 231.536672 
L 412.97673 232.041243 
L 414.529205 232.327347 
L 416.081681 232.394348 
L 417.634156 232.242096 
L 419.186632 231.87093 
L 420.739107 231.281675 
L 422.291583 230.475642 
L 423.844059 229.454624 
L 425.396534 228.22089 
L 427.466502 226.249833 
L 429.536469 223.913339 
L 431.606436 221.220645 
L 433.676404 218.182396 
L 436.263863 213.917071 
L 438.851322 209.157021 
L 441.438781 203.93164 
L 444.543733 197.092576 
L 447.648684 189.690851 
L 451.271127 180.432413 
L 455.411061 169.167487 
L 460.068488 155.835996 
L 467.313374 134.324149 
L 476.628227 106.775643 
L 481.285654 93.675467 
L 485.425589 82.696407 
L 489.048032 73.746418 
L 492.152983 66.649465 
L 495.257934 60.149606 
L 497.845393 55.231033 
L 500.432852 50.797719 
L 503.020312 46.877041 
L 505.090279 44.125978 
L 507.160246 41.729437 
L 509.230214 39.696893 
L 511.300181 38.03638 
L 512.852657 37.039145 
L 514.405132 36.257119 
L 515.957608 35.69204 
L 517.510083 35.345166 
L 519.062559 35.217268 
L 520.615034 35.308629 
L 522.16751 35.619048 
L 523.719985 36.147834 
L 525.272461 36.89381 
L 526.824937 37.855317 
L 528.377412 39.030218 
L 530.44738 40.924114 
L 532.517347 43.18519 
L 534.587314 45.804507 
L 536.657282 48.771711 
L 538.727249 52.075072 
L 541.314708 56.656979 
L 543.902168 61.715337 
L 546.489627 67.218909 
L 549.594578 74.362841 
L 552.699529 82.035287 
L 556.321972 91.56322 
L 560.461907 103.071084 
L 565.636825 118.116627 
L 583.231548 169.889806 
L 587.371483 181.113805 
L 590.993926 190.327577 
L 594.098877 197.684861 
L 597.203828 204.47422 
L 599.791287 209.654474 
L 602.378747 214.366326 
L 604.966206 218.580677 
L 607.036173 221.576361 
L 609.106141 224.225083 
L 611.176108 226.516374 
L 613.246075 228.441174 
L 615.316043 229.991875 
L 616.868518 230.905655 
L 618.420994 231.603493 
L 619.973469 232.083837 
L 621.525945 232.345619 
L 623.078421 232.388256 
L 624.630896 232.211655 
L 626.183372 231.816207 
L 627.735847 231.202792 
L 629.288323 230.372775 
L 630.840798 229.328001 
L 632.393274 228.070793 
L 634.463241 226.068965 
L 636.533209 223.702415 
L 638.603176 220.980499 
L 640.673143 217.913977 
L 643.260603 213.614817 
L 645.848062 208.822797 
L 648.435521 203.567511 
L 651.540472 196.695544 
L 654.645423 189.264447 
L 658.267866 179.976548 
L 662.407801 168.684724 
L 667.58272 153.816943 
L 674.310114 133.8075 
L 674.310114 133.8075 
" clip-path="url(#p69b8009ed7)" style="fill: none; stroke: #0000ff; stroke-opacity: 0.9; stroke-width: 3; stroke-linecap: square"/>
   </g>
   <g id="line2d_18">
    <path d="M 53.837386 133.8075 
L 62.634748 159.844185 
L 67.292174 172.993523 
L 71.432109 184.032194 
L 75.054552 193.045867 
L 78.159503 200.20536 
L 81.264454 206.774519 
L 83.851914 211.755561 
L 86.439373 216.255226 
L 89.026832 220.245725 
L 91.0968 223.054855 
L 93.166767 225.511179 
L 95.236734 227.604986 
L 97.306702 229.328001 
L 98.859177 230.372775 
L 100.411653 231.202792 
L 101.964128 231.816207 
L 103.516604 232.211655 
L 105.069079 232.388256 
L 106.621555 232.345619 
L 108.174031 232.083837 
L 109.726506 231.603493 
L 111.278982 230.905655 
L 112.831457 229.991875 
L 114.383933 228.864186 
L 116.4539 227.032254 
L 118.523868 224.831793 
L 120.593835 222.271502 
L 122.663802 219.361501 
L 124.73377 216.113294 
L 127.321229 211.597119 
L 129.908688 206.600545 
L 132.496147 201.154429 
L 135.601099 194.073233 
L 138.70605 186.456223 
L 142.328493 176.983085 
L 146.468427 165.524016 
L 151.643346 150.517626 
L 169.755561 97.244884 
L 173.895495 86.048554 
L 177.517938 76.864877 
L 180.622889 69.537472 
L 183.727841 62.781484 
L 186.3153 57.631493 
L 188.902759 52.951935 
L 191.490218 48.771711 
L 193.560186 45.804507 
L 195.630153 43.18519 
L 197.70012 40.924114 
L 199.770088 39.030218 
L 201.840055 37.510989 
L 203.392531 36.621111 
L 204.945006 35.947371 
L 206.497482 35.491268 
L 208.049957 35.253816 
L 209.602433 35.235542 
L 211.154909 35.436488 
L 212.707384 35.856207 
L 214.25986 36.493765 
L 215.812335 37.347744 
L 217.364811 38.416246 
L 219.434778 40.17044 
L 221.504746 42.294793 
L 223.574713 44.780908 
L 225.64468 47.618956 
L 227.714648 50.797719 
L 230.302107 55.231033 
L 232.889566 60.149606 
L 235.477025 65.523061 
L 238.581977 72.524744 
L 241.686928 80.071283 
L 245.309371 89.474464 
L 249.449305 100.870771 
L 254.624224 115.825902 
L 264.974061 146.686878 
L 271.183963 164.789262 
L 275.84139 177.678457 
L 279.463833 187.109815 
L 283.086276 195.89631 
L 286.191227 202.833516 
L 288.778686 208.148178 
L 291.366145 213.003741 
L 293.953604 217.370219 
L 296.023572 220.493032 
L 298.093539 223.273167 
L 300.163507 225.699633 
L 302.233474 227.762837 
L 304.303441 229.454624 
L 305.855917 230.475642 
L 307.408393 231.281675 
L 308.960868 231.87093 
L 310.513344 232.242096 
L 312.065819 232.394348 
L 313.618295 232.327347 
L 315.17077 232.041243 
L 316.723246 231.536672 
L 318.275721 230.814755 
L 319.828197 229.877098 
L 321.380672 228.725787 
L 323.45064 226.862848 
L 325.520607 224.632049 
L 327.590575 222.042209 
L 329.660542 219.103566 
L 331.730509 215.827737 
L 334.317969 211.278634 
L 336.905428 206.251099 
L 339.492887 200.77618 
L 342.597838 193.663518 
L 345.702789 186.018685 
L 349.325232 176.518019 
L 353.465167 165.034395 
L 358.640086 150.008222 
L 376.7523 96.765577 
L 380.892235 85.597225 
L 384.514678 76.443894 
L 387.619629 69.14657 
L 390.72458 62.424138 
L 393.312039 57.304551 
L 395.899499 52.657416 
L 398.486958 48.511434 
L 400.556925 45.572791 
L 402.626893 42.982951 
L 404.69686 40.752152 
L 406.766828 38.889213 
L 408.319303 37.737902 
L 409.871779 36.800245 
L 411.424254 36.078328 
L 412.97673 35.573757 
L 414.529205 35.287653 
L 416.081681 35.220652 
L 417.634156 35.372904 
L 419.186632 35.74407 
L 420.739107 36.333325 
L 422.291583 37.139358 
L 423.844059 38.160376 
L 425.396534 39.39411 
L 427.466502 41.365167 
L 429.536469 43.701661 
L 431.606436 46.394355 
L 433.676404 49.432604 
L 436.263863 53.697929 
L 438.851322 58.457979 
L 441.438781 63.68336 
L 444.543733 70.522424 
L 447.648684 77.924149 
L 451.271127 87.182587 
L 455.411061 98.447513 
L 460.068488 111.779004 
L 467.313374 133.290851 
L 476.628227 160.839357 
L 481.285654 173.939533 
L 485.425589 184.918593 
L 489.048032 193.868582 
L 492.152983 200.965535 
L 495.257934 207.465394 
L 497.845393 212.383967 
L 500.432852 216.817281 
L 503.020312 220.737959 
L 505.090279 223.489022 
L 507.160246 225.885563 
L 509.230214 227.918107 
L 511.300181 229.57862 
L 512.852657 230.575855 
L 514.405132 231.357881 
L 515.957608 231.92296 
L 517.510083 232.269834 
L 519.062559 232.397732 
L 520.615034 232.306371 
L 522.16751 231.995952 
L 523.719985 231.467166 
L 525.272461 230.72119 
L 526.824937 229.759683 
L 528.377412 228.584782 
L 530.44738 226.690886 
L 532.517347 224.42981 
L 534.587314 221.810493 
L 536.657282 218.843289 
L 538.727249 215.539928 
L 541.314708 210.958021 
L 543.902168 205.899663 
L 546.489627 200.396091 
L 549.594578 193.252159 
L 552.699529 185.579713 
L 556.321972 176.05178 
L 560.461907 164.543916 
L 565.636825 149.498373 
L 583.231548 97.725194 
L 587.371483 86.501195 
L 590.993926 77.287423 
L 594.098877 69.930139 
L 597.203828 63.14078 
L 599.791287 57.960526 
L 602.378747 53.248674 
L 604.966206 49.034323 
L 607.036173 46.038639 
L 609.106141 43.389917 
L 611.176108 41.098626 
L 613.246075 39.173826 
L 615.316043 37.623125 
L 616.868518 36.709345 
L 618.420994 36.011507 
L 619.973469 35.531163 
L 621.525945 35.269381 
L 623.078421 35.226744 
L 624.630896 35.403345 
L 626.183372 35.798793 
L 627.735847 36.412208 
L 629.288323 37.242225 
L 630.840798 38.286999 
L 632.393274 39.544207 
L 634.463241 41.546035 
L 636.533209 43.912585 
L 638.603176 46.634501 
L 640.673143 49.701023 
L 643.260603 54.000183 
L 645.848062 58.792203 
L 648.435521 64.047489 
L 651.540472 70.919456 
L 654.645423 78.350553 
L 658.267866 87.638452 
L 662.407801 98.930276 
L 667.58272 113.798057 
L 674.310114 133.8075 
L 674.310114 133.8075 
" clip-path="url(#p69b8009ed7)" style="fill: none; stroke: #ff0000; stroke-opacity: 0.9; stroke-width: 3; stroke-linecap: square"/>
   </g>
   <g id="patch_3">
    <path d="M 22.81375 242.2575 
L 22.81375 25.3575 
" style="fill: none; stroke: #1a1a1a; stroke-linejoin: miter; stroke-linecap: square"/>
   </g>
   <g id="patch_4">
    <path d="M 22.81375 242.2575 
L 705.33375 242.2575 
" style="fill: none; stroke: #1a1a1a; stroke-linejoin: miter; stroke-linecap: square"/>
   </g>
   <g id="text_11">
    <!-- Time Braid: Chronos ⟷ Kairos (color-depth for past/present/future) -->
    <g style="fill: #333333" transform="translate(94.5525 19.3575) scale(0.16 -0.16)">
     <defs>
      <path id="DejaVuSans-54" d="M -19 4666 
L 3928 4666 
L 3928 4134 
L 2272 4134 
L 2272 0 
L 1638 0 
L 1638 4134 
L -19 4134 
L -19 4666 
z
" transform="scale(0.015625)"/>
      <path id="DejaVuSans-3a" d="M 750 794 
L 1409 794 
L 1409 0 
L 750 0 
L 750 794 
z
M 750 3309 
L 1409 3309 
L 1409 2516 
L 750 2516 
L 750 3309 
z
" transform="scale(0.015625)"/>
      <path id="DejaVuSans-43" d="M 4122 4306 
L 4122 3641 
Q 3803 3938 3442 4084 
Q 3081 4231 2675 4231 
Q 1875 4231 1450 3742 
Q 1025 3253 1025 2328 
Q 1025 1406 1450 917 
Q 1875 428 2675 428 
Q 3081 428 3442 575 
Q 3803 722 4122 1019 
L 4122 359 
Q 3791 134 3420 21 
Q 3050 -91 2638 -91 
Q 1578 -91 968 557 
Q 359 1206 359 2328 
Q 359 3453 968 4101 
Q 1578 4750 2638 4750 
Q 3056 4750 3426 4639 
Q 3797 4528 4122 4306 
z
" transform="scale(0.015625)"/>
      <path id="DejaVuSans-68" d="M 3513 2113 
L 3513 0 
L 2938 0 
L 2938 2094 
Q 2938 2591 2744 2837 
Q 2550 3084 2163 3084 
Q 1697 3084 1428 2787 
Q 1159 2491 1159 1978 
L 1159 0 
L 581 0 
L 581 4863 
L 1159 4863 
L 1159 2956 
Q 1366 3272 1645 3428 
Q 1925 3584 2291 3584 
Q 2894 3584 3203 3211 
Q 3513 2838 3513 2113 
z
" transform="scale(0.015625)"/>
      <path id="DejaVuSans-27f7" d="M 313 1866 
L 313 2147 
L 1541 3375 
L 1916 3000 
L 1188 2272 
L 7988 2272 
L 7259 3000 
L 7634 3375 
L 8863 2147 
L 8863 1866 
L 7634 638 
L 7259 1013 
L 7988 1741 
L 1188 1741 
L 1916 1013 
L 1541 638 
L 313 1866 
z
" transform="scale(0.015625)"/>
      <path id="DejaVuSans-4b" d="M 628 4666 
L 1259 4666 
L 1259 2694 
L 3353 4666 
L 4166 4666 
L 1850 2491 
L 4331 0 
L 3500 0 
L 1259 2247 
L 1259 0 
L 628 0 
L 628 4666 
z
" transform="scale(0.015625)"/>
      <path id="DejaVuSans-63" d="M 3122 3366 
L 3122 2828 
Q 2878 2963 2633 3030 
Q 2388 3097 2138 3097 
Q 1578 3097 1268 2742 
Q 959 2388 959 1747 
Q 959 1106 1268 751 
Q 1578 397 2138 397 
Q 2388 397 2633 464 
Q 2878 531 3122 666 
L 3122 134 
Q 2881 22 2623 -34 
Q 2366 -91 2075 -91 
Q 1284 -91 818 406 
Q 353 903 353 1747 
Q 353 2603 823 3093 
Q 1294 3584 2113 3584 
Q 2378 3584 2631 3529 
Q 2884 3475 3122 3366 
z
" transform="scale(0.015625)"/>
      <path id="DejaVuSans-6c" d="M 603 4863 
L 1178 4863 
L 1178 0 
L 603 0 
L 603 4863 
z
" transform="scale(0.015625)"/>
      <path id="DejaVuSans-2d" d="M 313 2009 
L 1997 2009 
L 1997 1497 
L 313 1497 
L 313 2009 
z
" transform="scale(0.015625)"/>
      <path id="DejaVuSans-2f" d="M 1625 4666 
L 2156 4666 
L 531 -594 
L 0 -594 
L 1625 4666 
z
" transform="scale(0.015625)"/>
      <path id="DejaVuSans-75" d="M 544 1381 
L 544 3500 
L 1119 3500 
L 1119 1403 
Q 1119 906 1312 657 
Q 1506 409 1894 409 
Q 2359 409 2629 706 
Q 2900 1003 2900 1516 
L 2900 3500 
L 3475 3500 
L 3475 0 
L 2900 0 
L 2900 538 
Q 2691 219 2414 64 
Q 2138 -91 1772 -91 
Q 1169 -91 856 284 
Q 544 659 544 1381 
z
M 1991 3584 
L 1991 3584 
z
" transform="scale(0.015625)"/>
     </defs>
     <use xlink:href="#DejaVuSans-54"/>
     <use xlink:href="#DejaVuSans-69" x="57.958984"/>
     <use xlink:href="#DejaVuSans-6d" x="85.742188"/>
     <use xlink:href="#DejaVuSans-65" x="183.154297"/>
     <use xlink:href="#DejaVuSans-20" x="244.677734"/>
     <use xlink:href="#DejaVuSans-42" x="276.464844"/>
     <use xlink:href="#DejaVuSans-72" x="345.068359"/>
     <use xlink:href="#DejaVuSans-61" x="386.181641"/>
     <use xlink:href="#DejaVuSans-69" x="447.460938"/>
     <use xlink:href="#DejaVuSans-64" x="475.244141"/>
     <use xlink:href="#DejaVuSans-3a" x="538.720703"/>
     <use xlink:href="#DejaVuSans-20" x="572.412109"/>
     <use xlink:href="#DejaVuSans-43" x="604.199219"/>
     <use xlink:href="#DejaVuSans-68" x="674.023438"/>
     <use xlink:href="#DejaVuSans-72" x="737.402344"/>
     <use xlink:href="#DejaVuSans-6f" x="776.265625"/>
     <use xlink:href="#DejaVuSans-6e" x="837.447266"/>
     <use xlink:href="#DejaVuSans-6f" x="900.826172"/>
     <use xlink:href="#DejaVuSans-73" x="962.007812"/>
     <use xlink:href="#DejaVuSans-20" x="1014.107422"/>
     <use xlink:href="#DejaVuSans-27f7" x="1045.894531"/>
     <use xlink:href="#DejaVuSans-20" x="1189.253906"/>
     <use xlink:href="#DejaVuSans-4b" x="1221.041016"/>
     <use xlink:href="#DejaVuSans-61" x="1284.867188"/>
     <use xlink:href="#DejaVuSans-69" x="1346.146484"/>
     <use xlink:href="#DejaVuSans-72" x="1373.929688"/>
     <use xlink:href="#DejaVuSans-6f" x="1412.792969"/>
     <use xlink:href="#DejaVuSans-73" x="1473.974609"/>
     <use xlink:href="#DejaVuSans-20" x="1526.074219"/>
     <use xlink:href="#DejaVuSans-28" x="1557.861328"/>
     <use xlink:href="#DejaVuSans-63" x="1596.875"/>
     <use xlink:href="#DejaVuSans-6f" x="1651.855469"/>
     <use xlink:href="#DejaVuSans-6c" x="1713.037109"/>
     <use xlink:href="#DejaVuSans-6f" x="1740.820312"/>
     <use xlink:href="#DejaVuSans-72" x="1802.001953"/>
     <use xlink:href="#DejaVuSans-2d" x="1836.740234"/>
     <use xlink:href="#DejaVuSans-64" x="1872.824219"/>
     <use xlink:href="#DejaVuSans-65" x="1936.300781"/>
     <use xlink:href="#DejaVuSans-70" x="1997.824219"/>
     <use xlink:href="#DejaVuSans-74" x="2061.300781"/>
     <use xlink:href="#DejaVuSans-68" x="2100.509766"/>
     <use xlink:href="#DejaVuSans-20" x="2163.888672"/>
     <use xlink:href="#DejaVuSans-66" x="2195.675781"/>
     <use xlink:href="#DejaVuSans-6f" x="2230.880859"/>
     <use xlink:href="#DejaVuSans-72" x="2292.0625"/>
     <use xlink:href="#DejaVuSans-20" x="2333.175781"/>
     <use xlink:href="#DejaVuSans-70" x="2364.962891"/>
     <use xlink:href="#DejaVuSans-61" x="2428.439453"/>
     <use xlink:href="#DejaVuSans-73" x="2489.71875"/>
     <use xlink:href="#DejaVuSans-74" x="2541.818359"/>
     <use xlink:href="#DejaVuSans-2f" x="2581.027344"/>
     <use xlink:href="#DejaVuSans-70" x="2614.71875"/>
     <use xlink:href="#DejaVuSans-72" x="2678.195312"/>
     <use xlink:href="#DejaVuSans-65" x="2717.058594"/>
     <use xlink:href="#DejaVuSans-73" x="2778.582031"/>
     <use xlink:href="#DejaVuSans-65" x="2830.681641"/>
     <use xlink:href="#DejaVuSans-6e" x="2892.205078"/>
     <use xlink:href="#DejaVuSans-74" x="2955.583984"/>
     <use xlink:href="#DejaVuSans-2f" x="2994.792969"/>
     <use xlink:href="#DejaVuSans-66" x="3028.484375"/>
     <use xlink:href="#DejaVuSans-75" x="3063.689453"/>
     <use xlink:href="#DejaVuSans-74" x="3127.068359"/>
     <use xlink:href="#DejaVuSans-75" x="3166.277344"/>
     <use xlink:href="#DejaVuSans-72" x="3229.65625"/>
     <use xlink:href="#DejaVuSans-65" x="3268.519531"/>
     <use xlink:href="#DejaVuSans-29" x="3330.042969"/>
    </g>
   </g>
   <g id="PathCollection_1">
    <defs>
     <path id="m98030d93e7" d="M -3.872983 3.872983 
L 3.872983 -3.872983 
M -3.872983 -3.872983 
L 3.872983 3.872983 
" style="stroke: #ee82ee; stroke-width: 1.5"/>
    </defs>
    <g clip-path="url(#p69b8009ed7)">
     <use xlink:href="#m98030d93e7" x="53.837386" y="133.8075" style="fill: #ee82ee; stroke: #ee82ee; stroke-width: 1.5"/>
     <use xlink:href="#m98030d93e7" x="157.249508" y="133.8075" style="fill: #ee82ee; stroke: #ee82ee; stroke-width: 1.5"/>
     <use xlink:href="#m98030d93e7" x="260.661629" y="133.8075" style="fill: #ee82ee; stroke: #ee82ee; stroke-width: 1.5"/>
     <use xlink:href="#m98030d93e7" x="364.07375" y="133.8075" style="fill: #ee82ee; stroke: #ee82ee; stroke-width: 1.5"/>
     <use xlink:href="#m98030d93e7" x="467.485871" y="133.8075" style="fill: #ee82ee; stroke: #ee82ee; stroke-width: 1.5"/>
     <use xlink:href="#m98030d93e7" x="570.897992" y="133.8075" style="fill: #ee82ee; stroke: #ee82ee; stroke-width: 1.5"/>
     <use xlink:href="#m98030d93e7" x="674.310114" y="133.8075" style="fill: #ee82ee; stroke: #ee82ee; stroke-width: 1.5"/>
    </g>
   </g>
   <g id="legend_1">
    <g id="patch_5">
     <path d="M 539.757187 92.07 
L 698.33375 92.07 
Q 700.33375 92.07 700.33375 90.07 
L 700.33375 32.3575 
Q 700.33375 30.3575 698.33375 30.3575 
L 539.757187 30.3575 
Q 537.757187 30.3575 537.757187 32.3575 
L 537.757187 90.07 
Q 537.757187 92.07 539.757187 92.07 
z
" style="fill: #ffffff; opacity: 0.9; stroke: #cccccc; stroke-linejoin: miter"/>
    </g>
    <g id="line2d_19">
     <path d="M 541.757187 38.455938 
L 551.757187 38.455938 
L 561.757187 38.455938 
" style="fill: none; stroke: #0000ff; stroke-opacity: 0.9; stroke-width: 3; stroke-linecap: square"/>
    </g>
    <g id="text_12">
     <!-- Chronos (past, blue) -->
     <g style="fill: #333333" transform="translate(569.757187 41.955938) scale(0.1 -0.1)">
      <defs>
       <path id="DejaVuSans-2c" d="M 750 794 
L 1409 794 
L 1409 256 
L 897 -744 
L 494 -744 
L 750 256 
L 750 794 
z
" transform="scale(0.015625)"/>
       <path id="DejaVuSans-62" d="M 3116 1747 
Q 3116 2381 2855 2742 
Q 2594 3103 2138 3103 
Q 1681 3103 1420 2742 
Q 1159 2381 1159 1747 
Q 1159 1113 1420 752 
Q 1681 391 2138 391 
Q 2594 391 2855 752 
Q 3116 1113 3116 1747 
z
M 1159 2969 
Q 1341 3281 1617 3432 
Q 1894 3584 2278 3584 
Q 2916 3584 3314 3078 
Q 3713 2572 3713 1747 
Q 3713 922 3314 415 
Q 2916 -91 2278 -91 
Q 1894 -91 1617 61 
Q 1341 213 1159 525 
L 1159 0 
L 581 0 
L 581 4863 
L 1159 4863 
L 1159 2969 
z
" transform="scale(0.015625)"/>
      </defs>
      <use xlink:href="#DejaVuSans-43"/>
      <use xlink:href="#DejaVuSans-68" x="69.824219"/>
      <use xlink:href="#DejaVuSans-72" x="133.203125"/>
      <use xlink:href="#DejaVuSans-6f" x="172.066406"/>
      <use xlink:href="#DejaVuSans-6e" x="233.248047"/>
      <use xlink:href="#DejaVuSans-6f" x="296.626953"/>
      <use xlink:href="#DejaVuSans-73" x="357.808594"/>
      <use xlink:href="#DejaVuSans-20" x="409.908203"/>
      <use xlink:href="#DejaVuSans-28" x="441.695312"/>
      <use xlink:href="#DejaVuSans-70" x="480.708984"/>
      <use xlink:href="#DejaVuSans-61" x="544.185547"/>
      <use xlink:href="#DejaVuSans-73" x="605.464844"/>
      <use xlink:href="#DejaVuSans-74" x="657.564453"/>
      <use xlink:href="#DejaVuSans-2c" x="696.773438"/>
      <use xlink:href="#DejaVuSans-20" x="728.560547"/>
      <use xlink:href="#DejaVuSans-62" x="760.347656"/>
      <use xlink:href="#DejaVuSans-6c" x="823.824219"/>
      <use xlink:href="#DejaVuSans-75" x="851.607422"/>
      <use xlink:href="#DejaVuSans-65" x="914.986328"/>
      <use xlink:href="#DejaVuSans-29" x="976.509766"/>
     </g>
    </g>
    <g id="line2d_20">
     <path d="M 541.757187 53.134062 
L 551.757187 53.134062 
L 561.757187 53.134062 
" style="fill: none; stroke: #ff0000; stroke-opacity: 0.9; stroke-width: 3; stroke-linecap: square"/>
    </g>
    <g id="text_13">
     <!-- Kairos (present, red) -->
     <g style="fill: #333333" transform="translate(569.757187 56.634062) scale(0.1 -0.1)">
      <use xlink:href="#DejaVuSans-4b"/>
      <use xlink:href="#DejaVuSans-61" x="63.826172"/>
      <use xlink:href="#DejaVuSans-69" x="125.105469"/>
      <use xlink:href="#DejaVuSans-72" x="152.888672"/>
      <use xlink:href="#DejaVuSans-6f" x="191.751953"/>
      <use xlink:href="#DejaVuSans-73" x="252.933594"/>
      <use xlink:href="#DejaVuSans-20" x="305.033203"/>
      <use xlink:href="#DejaVuSans-28" x="336.820312"/>
      <use xlink:href="#DejaVuSans-70" x="375.833984"/>
      <use xlink:href="#DejaVuSans-72" x="439.310547"/>
      <use xlink:href="#DejaVuSans-65" x="478.173828"/>
      <use xlink:href="#DejaVuSans-73" x="539.697266"/>
      <use xlink:href="#DejaVuSans-65" x="591.796875"/>
      <use xlink:href="#DejaVuSans-6e" x="653.320312"/>
      <use xlink:href="#DejaVuSans-74" x="716.699219"/>
      <use xlink:href="#DejaVuSans-2c" x="755.908203"/>
      <use xlink:href="#DejaVuSans-20" x="787.695312"/>
      <use xlink:href="#DejaVuSans-72" x="819.482422"/>
      <use xlink:href="#DejaVuSans-65" x="858.345703"/>
      <use xlink:href="#DejaVuSans-64" x="919.869141"/>
      <use xlink:href="#DejaVuSans-29" x="983.345703"/>
     </g>
    </g>
    <g id="PathCollection_2">
     <g>
      <use xlink:href="#m98030d93e7" x="551.757187" y="68.687187" style="fill: #ee82ee; stroke: #ee82ee; stroke-width: 1.5"/>
     </g>
    </g>
    <g id="text_14">
     <!-- Leap node (violet) -->
     <g style="fill: #333333" transform="translate(569.757187 71.312187) scale(0.1 -0.1)">
      <defs>
       <path id="DejaVuSans-4c" d="M 628 4666 
L 1259 4666 
L 1259 531 
L 3531 531 
L 3531 0 
L 628 0 
L 628 4666 
z
" transform="scale(0.015625)"/>
       <path id="DejaVuSans-76" d="M 191 3500 
L 800 3500 
L 1894 563 
L 2988 3500 
L 3597 3500 
L 2284 0 
L 1503 0 
L 191 3500 
z
" transform="scale(0.015625)"/>
      </defs>
      <use xlink:href="#DejaVuSans-4c"/>
      <use xlink:href="#DejaVuSans-65" x="53.962891"/>
      <use xlink:href="#DejaVuSans-61" x="115.486328"/>
      <use xlink:href="#DejaVuSans-70" x="176.765625"/>
      <use xlink:href="#DejaVuSans-20" x="240.242188"/>
      <use xlink:href="#DejaVuSans-6e" x="272.029297"/>
      <use xlink:href="#DejaVuSans-6f" x="335.408203"/>
      <use xlink:href="#DejaVuSans-64" x="396.589844"/>
      <use xlink:href="#DejaVuSans-65" x="460.066406"/>
      <use xlink:href="#DejaVuSans-20" x="521.589844"/>
      <use xlink:href="#DejaVuSans-28" x="553.376953"/>
      <use xlink:href="#DejaVuSans-76" x="592.390625"/>
      <use xlink:href="#DejaVuSans-69" x="651.570312"/>
      <use xlink:href="#DejaVuSans-6f" x="679.353516"/>
      <use xlink:href="#DejaVuSans-6c" x="740.535156"/>
      <use xlink:href="#DejaVuSans-65" x="768.318359"/>
      <use xlink:href="#DejaVuSans-74" x="829.841797"/>
      <use xlink:href="#DejaVuSans-29" x="869.050781"/>
     </g>
    </g>
    <g id="PathCollection_3">
     <defs>
      <path id="mbeae75dc76" d="M 0 -5.477226 
L -1.229714 -1.692556 
L -5.209151 -1.692556 
L -1.989719 0.646499 
L -3.219432 4.431169 
L -0 2.092114 
L 3.219432 4.431169 
L 1.989719 0.646499 
L 5.209151 -1.692556 
L 1.229714 -1.692556 
z
" style="stroke: #000000; stroke-width: 0.5"/>
     </defs>
     <g>
      <use xlink:href="#mbeae75dc76" x="551.757187" y="83.365313" style="fill: #ffd700; stroke: #000000; stroke-width: 0.5"/>
     </g>
    </g>
    <g id="text_15">
     <!-- Locked star (future, gold) -->
     <g style="fill: #333333" transform="translate(569.757187 85.990313) scale(0.1 -0.1)">
      <defs>
       <path id="DejaVuSans-6b" d="M 581 4863 
L 1159 4863 
L 1159 1991 
L 2875 3500 
L 3609 3500 
L 1753 1863 
L 3688 0 
L 2938 0 
L 1159 1709 
L 1159 0 
L 581 0 
L 581 4863 
z
" transform="scale(0.015625)"/>
       <path id="DejaVuSans-67" d="M 2906 1791 
Q 2906 2416 2648 2759 
Q 2391 3103 1925 3103 
Q 1463 3103 1205 2759 
Q 947 2416 947 1791 
Q 947 1169 1205 825 
Q 1463 481 1925 481 
Q 2391 481 2648 825 
Q 2906 1169 2906 1791 
z
M 3481 434 
Q 3481 -459 3084 -895 
Q 2688 -1331 1869 -1331 
Q 1566 -1331 1297 -1286 
Q 1028 -1241 775 -1147 
L 775 -588 
Q 1028 -725 1275 -790 
Q 1522 -856 1778 -856 
Q 2344 -856 2625 -561 
Q 2906 -266 2906 331 
L 2906 616 
Q 2728 306 2450 153 
Q 2172 0 1784 0 
Q 1141 0 747 490 
Q 353 981 353 1791 
Q 353 2603 747 3093 
Q 1141 3584 1784 3584 
Q 2172 3584 2450 3431 
Q 2728 3278 2906 2969 
L 2906 3500 
L 3481 3500 
L 3481 434 
z
" transform="scale(0.015625)"/>
      </defs>
      <use xlink:href="#DejaVuSans-4c"/>
      <use xlink:href="#DejaVuSans-6f" x="53.962891"/>
      <use xlink:href="#DejaVuSans-63" x="115.144531"/>
      <use xlink:href="#DejaVuSans-6b" x="170.125"/>
      <use xlink:href="#DejaVuSans-65" x="224.410156"/>
      <use xlink:href="#DejaVuSans-64" x="285.933594"/>
      <use xlink:href="#DejaVuSans-20" x="349.410156"/>
      <use xlink:href="#DejaVuSans-73" x="381.197266"/>
      <use xlink:href="#DejaVuSans-74" x="433.296875"/>
      <use xlink:href="#DejaVuSans-61" x="472.505859"/>
      <use xlink:href="#DejaVuSans-72" x="533.785156"/>
      <use xlink:href="#DejaVuSans-20" x="574.898438"/>
      <use xlink:href="#DejaVuSans-28" x="606.685547"/>
      <use xlink:href="#DejaVuSans-66" x="645.699219"/>
      <use xlink:href="#DejaVuSans-75" x="680.904297"/>
      <use xlink:href="#DejaVuSans-74" x="744.283203"/>
      <use xlink:href="#DejaVuSans-75" x="783.492188"/>
      <use xlink:href="#DejaVuSans-72" x="846.871094"/>
      <use xlink:href="#DejaVuSans-65" x="885.734375"/>
      <use xlink:href="#DejaVuSans-2c" x="947.257812"/>
      <use xlink:href="#DejaVuSans-20" x="979.044922"/>
      <use xlink:href="#DejaVuSans-67" x="1010.832031"/>
      <use xlink:href="#DejaVuSans-6f" x="1074.308594"/>
      <use xlink:href="#DejaVuSans-6c" x="1135.490234"/>
      <use xlink:href="#DejaVuSans-64" x="1163.273438"/>
      <use xlink:href="#DejaVuSans-29" x="1226.75"/>
     </g>
    </g>
   </g>
   <g id="PathCollection_4">
    <g clip-path="url(#p69b8009ed7)">
     <use xlink:href="#mbeae75dc76" x="157.249508" y="133.8075" style="fill: #ffd700; stroke: #000000; stroke-width: 0.5"/>
     <use xlink:href="#mbeae75dc76" x="364.07375" y="133.8075" style="fill: #ffd700; stroke: #000000; stroke-width: 0.5"/>
     <use xlink:href="#mbeae75dc76" x="570.897992" y="133.8075" style="fill: #ffd700; stroke: #000000; stroke-width: 0.5"/>
    </g>
   </g>
  </g>
 </g>
 <defs>
  <clipPath id="p69b8009ed7">
   <rect x="22.81375" y="25.3575" width="682.52" height="216.9"/>
  </clipPath>
 </defs>
</svg>
